<mxfile host="65bd71144e">
    <diagram id="QJjx0-fPxzvcmYibJWj1" name="Page-1">
        <mxGraphModel dx="1491" dy="804" grid="0" gridSize="10" guides="1" tooltips="1" connect="1" arrows="1" fold="1" page="1" pageScale="1" pageWidth="827" pageHeight="583" background="none" math="0" shadow="0">
            <root>
                <mxCell id="0"/>
                <mxCell id="1" parent="0"/>
                <mxCell id="2" value="" style="shape=cube;whiteSpace=wrap;html=1;boundedLbl=1;backgroundOutline=1;darkOpacity=0.05;darkOpacity2=0.1;size=110;direction=east;flipH=1;fillColor=#f5f5f5;strokeColor=#666666;fontColor=#333333;" parent="1" vertex="1">
                    <mxGeometry x="50" y="96" width="120" height="424" as="geometry"/>
                </mxCell>
                <mxCell id="4f-DMQIj-ya-iA7LCkDa-1" value="" style="shape=cube;whiteSpace=wrap;html=1;boundedLbl=1;backgroundOutline=1;darkOpacity=0.05;darkOpacity2=0.1;size=110;direction=east;flipH=1;fillColor=#fff2cc;strokeColor=#d6b656;" parent="1" vertex="1">
                    <mxGeometry x="71" y="96" width="149" height="420" as="geometry"/>
                </mxCell>
                <mxCell id="11" value="" style="shape=cube;whiteSpace=wrap;html=1;boundedLbl=1;backgroundOutline=1;darkOpacity=0.05;darkOpacity2=0.1;size=110;direction=east;flipH=1;fillColor=#fff2cc;strokeColor=#d6b656;" vertex="1" parent="1">
                    <mxGeometry x="121" y="98" width="149" height="420" as="geometry"/>
                </mxCell>
                <mxCell id="4f-DMQIj-ya-iA7LCkDa-3" value="" style="shape=cube;whiteSpace=wrap;html=1;boundedLbl=1;backgroundOutline=1;darkOpacity=0.05;darkOpacity2=0.1;size=70;direction=east;flipH=1;fillColor=#dae8fc;strokeColor=#6c8ebf;" parent="1" vertex="1">
                    <mxGeometry x="180" y="210" width="110" height="240" as="geometry"/>
                </mxCell>
                <mxCell id="4f-DMQIj-ya-iA7LCkDa-4" value="" style="shape=cube;whiteSpace=wrap;html=1;boundedLbl=1;backgroundOutline=1;darkOpacity=0.05;darkOpacity2=0.1;size=70;direction=east;flipH=1;fillColor=#fff2cc;strokeColor=#d6b656;" parent="1" vertex="1">
                    <mxGeometry x="230" y="210" width="170" height="240" as="geometry"/>
                </mxCell>
                <mxCell id="12" value="" style="shape=cube;whiteSpace=wrap;html=1;boundedLbl=1;backgroundOutline=1;darkOpacity=0.05;darkOpacity2=0.1;size=70;direction=east;flipH=1;fillColor=#fff2cc;strokeColor=#d6b656;" vertex="1" parent="1">
                    <mxGeometry x="340" y="210" width="170" height="240" as="geometry"/>
                </mxCell>
                <mxCell id="4" value="" style="shape=cube;whiteSpace=wrap;html=1;boundedLbl=1;backgroundOutline=1;darkOpacity=0.05;darkOpacity2=0.1;size=40;direction=east;flipH=1;fillColor=#dae8fc;strokeColor=#6c8ebf;" parent="1" vertex="1">
                    <mxGeometry x="450" y="270" width="140" height="133.75" as="geometry"/>
                </mxCell>
                <mxCell id="4f-DMQIj-ya-iA7LCkDa-8" value="" style="shape=cube;whiteSpace=wrap;html=1;boundedLbl=1;backgroundOutline=1;darkOpacity=0.05;darkOpacity2=0.1;size=40;direction=east;flipH=1;fillColor=#fff2cc;strokeColor=#d6b656;" parent="1" vertex="1">
                    <mxGeometry x="560" y="270" width="210" height="133.75" as="geometry"/>
                </mxCell>
                <mxCell id="18" value="" style="shape=cube;whiteSpace=wrap;html=1;boundedLbl=1;backgroundOutline=1;darkOpacity=0.05;darkOpacity2=0.1;size=40;direction=east;flipH=1;fillColor=#fff2cc;strokeColor=#d6b656;" vertex="1" parent="1">
                    <mxGeometry x="740" y="270" width="210" height="133.75" as="geometry"/>
                </mxCell>
                <mxCell id="4f-DMQIj-ya-iA7LCkDa-10" value="" style="shape=cube;whiteSpace=wrap;html=1;boundedLbl=1;backgroundOutline=1;darkOpacity=0.05;darkOpacity2=0.1;size=20;direction=east;flipH=1;fillColor=#dae8fc;strokeColor=#6c8ebf;" parent="1" vertex="1">
                    <mxGeometry x="920" y="300.31" width="155" height="73.13" as="geometry"/>
                </mxCell>
                <mxCell id="19" value="" style="shape=cube;whiteSpace=wrap;html=1;boundedLbl=1;backgroundOutline=1;darkOpacity=0.05;darkOpacity2=0.1;size=40;direction=east;flipH=1;fillColor=#d5e8d4;strokeColor=#82b366;" vertex="1" parent="1">
                    <mxGeometry x="1060" y="270" width="140" height="133.75" as="geometry"/>
                </mxCell>
                <mxCell id="20" value="" style="shape=cube;whiteSpace=wrap;html=1;boundedLbl=1;backgroundOutline=1;darkOpacity=0.05;darkOpacity2=0.1;size=40;direction=east;flipH=1;fillColor=#fff2cc;strokeColor=#d6b656;" vertex="1" parent="1">
                    <mxGeometry x="1171" y="270" width="140" height="133.75" as="geometry"/>
                </mxCell>
                <mxCell id="21" value="" style="shape=cube;whiteSpace=wrap;html=1;boundedLbl=1;backgroundOutline=1;darkOpacity=0.05;darkOpacity2=0.1;size=70;direction=east;flipH=1;fillColor=#d5e8d4;strokeColor=#82b366;" vertex="1" parent="1">
                    <mxGeometry x="1280" y="216.88" width="110" height="240" as="geometry"/>
                </mxCell>
                <mxCell id="22" value="" style="shape=cube;whiteSpace=wrap;html=1;boundedLbl=1;backgroundOutline=1;darkOpacity=0.05;darkOpacity2=0.1;size=70;direction=east;flipH=1;fillColor=#fff2cc;strokeColor=#d6b656;" vertex="1" parent="1">
                    <mxGeometry x="1340" y="216.88" width="110" height="240" as="geometry"/>
                </mxCell>
                <mxCell id="23" value="" style="shape=cube;whiteSpace=wrap;html=1;boundedLbl=1;backgroundOutline=1;darkOpacity=0.05;darkOpacity2=0.1;size=110;direction=east;flipH=1;fillColor=#d5e8d4;strokeColor=#82b366;" vertex="1" parent="1">
                    <mxGeometry x="1390" y="110" width="130" height="424" as="geometry"/>
                </mxCell>
                <mxCell id="25" value="&lt;div&gt;&lt;b style=&quot;&quot;&gt;&lt;font style=&quot;color: rgb(255, 255, 255);&quot;&gt;Conv + BN + ReLU *2&lt;/font&gt;&lt;/b&gt;&lt;/div&gt;&lt;div&gt;&lt;b style=&quot;background-color: transparent;&quot;&gt;&lt;font style=&quot;color: rgb(255, 255, 255);&quot;&gt;(32, 256, 256)&lt;/font&gt;&lt;/b&gt;&lt;/div&gt;" style="text;html=1;strokeColor=none;fillColor=none;align=center;verticalAlign=middle;whiteSpace=wrap;rounded=0;" vertex="1" parent="1">
                    <mxGeometry x="178" y="29" width="101" height="49" as="geometry"/>
                </mxCell>
                <mxCell id="26" value="&lt;b&gt;&lt;font style=&quot;color: rgb(255, 255, 255);&quot;&gt;Input&lt;/font&gt;&lt;/b&gt;&lt;div&gt;&lt;b&gt;&lt;font style=&quot;color: rgb(255, 255, 255);&quot;&gt;(4, 256, 256)&lt;/font&gt;&lt;/b&gt;&lt;/div&gt;" style="text;html=1;strokeColor=none;fillColor=none;align=center;verticalAlign=middle;whiteSpace=wrap;rounded=0;fontColor=#FFFFFF;" vertex="1" parent="1">
                    <mxGeometry x="71" y="47.99999999999994" width="101" height="30" as="geometry"/>
                </mxCell>
                <mxCell id="27" value="&lt;div&gt;&lt;b&gt;&lt;font style=&quot;color: rgb(255, 255, 255);&quot;&gt;MaxPool&lt;/font&gt;&lt;/b&gt;&lt;/div&gt;&lt;div&gt;&lt;b&gt;&lt;font style=&quot;color: rgb(255, 255, 255);&quot;&gt;(32, 128, 128)&lt;/font&gt;&lt;/b&gt;&lt;/div&gt;" style="text;html=1;strokeColor=none;fillColor=none;align=center;verticalAlign=middle;whiteSpace=wrap;rounded=0;" vertex="1" parent="1">
                    <mxGeometry x="154" y="518" width="101" height="30" as="geometry"/>
                </mxCell>
                <mxCell id="28" value="&lt;div&gt;&lt;b style=&quot;&quot;&gt;&lt;font style=&quot;color: rgb(255, 255, 255);&quot;&gt;Conv + BN + ReLU *2&lt;/font&gt;&lt;/b&gt;&lt;/div&gt;&lt;div&gt;&lt;b style=&quot;background-color: transparent;&quot;&gt;&lt;font style=&quot;color: rgb(255, 255, 255);&quot;&gt;(64, 128, 128)&lt;/font&gt;&lt;/b&gt;&lt;/div&gt;" style="text;html=1;strokeColor=none;fillColor=none;align=center;verticalAlign=middle;whiteSpace=wrap;rounded=0;" vertex="1" parent="1">
                    <mxGeometry x="357" y="150" width="101" height="49" as="geometry"/>
                </mxCell>
                <mxCell id="30" value="&lt;div&gt;&lt;b&gt;&lt;font style=&quot;color: rgb(255, 255, 255);&quot;&gt;MaxPool&lt;/font&gt;&lt;/b&gt;&lt;/div&gt;&lt;div&gt;&lt;b&gt;&lt;font style=&quot;color: rgb(255, 255, 255);&quot;&gt;(64, 64, 64)&lt;/font&gt;&lt;/b&gt;&lt;/div&gt;" style="text;html=1;strokeColor=none;fillColor=none;align=center;verticalAlign=middle;whiteSpace=wrap;rounded=0;" vertex="1" parent="1">
                    <mxGeometry x="459" y="424" width="101" height="30" as="geometry"/>
                </mxCell>
                <mxCell id="31" value="&lt;div&gt;&lt;b style=&quot;&quot;&gt;&lt;font style=&quot;color: rgb(255, 255, 255);&quot;&gt;Conv + BN + ReLU *2&lt;/font&gt;&lt;/b&gt;&lt;/div&gt;&lt;div&gt;&lt;b style=&quot;background-color: transparent;&quot;&gt;&lt;font style=&quot;color: rgb(255, 255, 255);&quot;&gt;(128, 64, 64)&lt;/font&gt;&lt;/b&gt;&lt;/div&gt;" style="text;html=1;strokeColor=none;fillColor=none;align=center;verticalAlign=middle;whiteSpace=wrap;rounded=0;" vertex="1" parent="1">
                    <mxGeometry x="720" y="199" width="101" height="49" as="geometry"/>
                </mxCell>
                <mxCell id="32" value="&lt;div&gt;&lt;b&gt;&lt;font style=&quot;color: rgb(255, 255, 255);&quot;&gt;MaxPool&lt;/font&gt;&lt;/b&gt;&lt;/div&gt;&lt;div&gt;&lt;b&gt;&lt;font style=&quot;color: rgb(255, 255, 255);&quot;&gt;(128, 32, 32)&lt;/font&gt;&lt;/b&gt;&lt;/div&gt;" style="text;html=1;strokeColor=none;fillColor=none;align=center;verticalAlign=middle;whiteSpace=wrap;rounded=0;" vertex="1" parent="1">
                    <mxGeometry x="941" y="400" width="101" height="30" as="geometry"/>
                </mxCell>
                <mxCell id="33" value="&lt;div&gt;&lt;b&gt;&lt;font style=&quot;color: rgb(255, 255, 255);&quot;&gt;TransposedConv&lt;/font&gt;&lt;/b&gt;&lt;/div&gt;&lt;div&gt;&lt;b&gt;&lt;font style=&quot;color: rgb(255, 255, 255);&quot;&gt;(64, 64, 64)&lt;/font&gt;&lt;/b&gt;&lt;/div&gt;" style="text;html=1;strokeColor=none;fillColor=none;align=center;verticalAlign=middle;whiteSpace=wrap;rounded=0;" vertex="1" parent="1">
                    <mxGeometry x="1091" y="225" width="101" height="30" as="geometry"/>
                </mxCell>
                <mxCell id="34" value="&lt;div&gt;&lt;b style=&quot;&quot;&gt;&lt;font style=&quot;color: rgb(255, 255, 255);&quot;&gt;Conv + BN + ReLU&amp;nbsp;&lt;/font&gt;&lt;/b&gt;&lt;/div&gt;&lt;div&gt;&lt;b style=&quot;background-color: transparent;&quot;&gt;&lt;font style=&quot;color: rgb(255, 255, 255);&quot;&gt;(64, 64, 64)&lt;/font&gt;&lt;/b&gt;&lt;/div&gt;" style="text;html=1;strokeColor=none;fillColor=none;align=center;verticalAlign=middle;whiteSpace=wrap;rounded=0;" vertex="1" parent="1">
                    <mxGeometry x="1205" y="206" width="101" height="49" as="geometry"/>
                </mxCell>
                <mxCell id="35" value="&lt;div&gt;&lt;b&gt;&lt;font style=&quot;color: rgb(255, 255, 255);&quot;&gt;TransposedConv&lt;/font&gt;&lt;/b&gt;&lt;/div&gt;&lt;div&gt;&lt;b&gt;&lt;font style=&quot;color: rgb(255, 255, 255);&quot;&gt;(32, 128, 128)&lt;/font&gt;&lt;/b&gt;&lt;/div&gt;" style="text;html=1;strokeColor=none;fillColor=none;align=center;verticalAlign=middle;whiteSpace=wrap;rounded=0;" vertex="1" parent="1">
                    <mxGeometry x="1302" y="169" width="101" height="30" as="geometry"/>
                </mxCell>
                <mxCell id="36" value="&lt;div&gt;&lt;b style=&quot;&quot;&gt;&lt;font style=&quot;color: rgb(255, 255, 255);&quot;&gt;Conv + BN + ReLU&amp;nbsp;&lt;/font&gt;&lt;/b&gt;&lt;/div&gt;&lt;div&gt;&lt;b style=&quot;background-color: transparent;&quot;&gt;&lt;font style=&quot;color: rgb(255, 255, 255);&quot;&gt;(32, 128, 128)&lt;/font&gt;&lt;/b&gt;&lt;/div&gt;" style="text;html=1;strokeColor=none;fillColor=none;align=center;verticalAlign=middle;whiteSpace=wrap;rounded=0;" vertex="1" parent="1">
                    <mxGeometry x="1362" y="101" width="101" height="49" as="geometry"/>
                </mxCell>
                <mxCell id="37" value="&lt;div&gt;&lt;b&gt;&lt;font style=&quot;color: rgb(255, 255, 255);&quot;&gt;TransposedConv&lt;/font&gt;&lt;/b&gt;&lt;/div&gt;&lt;div&gt;&lt;b&gt;&lt;font style=&quot;color: rgb(255, 255, 255);&quot;&gt;(Nombre classes, 256, 256)&lt;/font&gt;&lt;/b&gt;&lt;/div&gt;" style="text;html=1;strokeColor=none;fillColor=none;align=center;verticalAlign=middle;whiteSpace=wrap;rounded=0;" vertex="1" parent="1">
                    <mxGeometry x="1450" y="60" width="101" height="30" as="geometry"/>
                </mxCell>
                <mxCell id="38" value="&lt;font style=&quot;color: rgb(255, 255, 255);&quot;&gt;pooling&lt;/font&gt;" style="text;html=1;strokeColor=none;fillColor=none;align=left;verticalAlign=middle;whiteSpace=wrap;rounded=0;fontStyle=1" vertex="1" parent="1">
                    <mxGeometry x="788" y="484.54" width="138" height="23.88" as="geometry"/>
                </mxCell>
                <mxCell id="39" value="&lt;font style=&quot;color: rgb(255, 255, 255);&quot;&gt;convolution + BatchNorm+ ReLU&lt;/font&gt;" style="text;html=1;strokeColor=none;fillColor=none;align=left;verticalAlign=middle;whiteSpace=wrap;rounded=0;fontStyle=1" vertex="1" parent="1">
                    <mxGeometry x="788" y="446" width="138" height="23.88" as="geometry"/>
                </mxCell>
                <mxCell id="41" value="" style="shape=cube;whiteSpace=wrap;html=1;boundedLbl=1;backgroundOutline=1;darkOpacity=0.05;darkOpacity2=0.1;size=7;direction=east;flipH=1;fillColor=#fff2cc;strokeColor=#d6b656;" vertex="1" parent="1">
                    <mxGeometry x="749" y="445.9999999999999" width="33" height="20.32" as="geometry"/>
                </mxCell>
                <mxCell id="42" value="&lt;font style=&quot;color: rgb(255, 255, 255);&quot;&gt;convolutional transposition&lt;/font&gt;" style="text;html=1;strokeColor=none;fillColor=none;align=left;verticalAlign=middle;whiteSpace=wrap;rounded=0;fontStyle=1" vertex="1" parent="1">
                    <mxGeometry x="788" y="521.8199999999998" width="138" height="23.88" as="geometry"/>
                </mxCell>
                <mxCell id="43" value="" style="shape=cube;whiteSpace=wrap;html=1;boundedLbl=1;backgroundOutline=1;darkOpacity=0.05;darkOpacity2=0.1;size=7;direction=east;flipH=1;fillColor=#dae8fc;strokeColor=#6c8ebf;" vertex="1" parent="1">
                    <mxGeometry x="749" y="486.3199999999999" width="33" height="20.32" as="geometry"/>
                </mxCell>
                <mxCell id="44" value="" style="edgeStyle=none;html=1;" edge="1" parent="1" source="45" target="42">
                    <mxGeometry relative="1" as="geometry"/>
                </mxCell>
                <mxCell id="45" value="" style="shape=cube;whiteSpace=wrap;html=1;boundedLbl=1;backgroundOutline=1;darkOpacity=0.05;darkOpacity2=0.1;size=7;direction=east;flipH=1;fillColor=#d5e8d4;strokeColor=#82b366;" vertex="1" parent="1">
                    <mxGeometry x="749" y="525.3799999999999" width="33" height="20.32" as="geometry"/>
                </mxCell>
            </root>
        </mxGraphModel>
    </diagram>
</mxfile>